Coordinates
version=1
nRows=38
nColumns=38
inDegrees=no

Units are S.I. units (second, meters, Newtons, ...)
If the header above contains a line with 'inDegrees', this indicates whether rotational values are in degrees (yes) or radians (no).

endheader
time	pelvis_tilt	pelvis_list	pelvis_rotation	pelvis_tx	pelvis_ty	pelvis_tz	hip_flexion_r	hip_adduction_r	hip_rotation_r	knee_angle_r	ankle_angle_r	subtalar_angle_r	mtp_angle_r	hip_flexion_l	hip_adduction_l	hip_rotation_l	knee_angle_l	ankle_angle_l	subtalar_angle_l	mtp_angle_l	lumbar_extension	lumbar_bending	lumbar_rotation	arm_flex_r	arm_add_r	arm_rot_r	elbow_flex_r	pro_sup_r	wrist_flex_r	wrist_dev_r	arm_flex_l	arm_add_l	arm_rot_l	elbow_flex_l	pro_sup_l	wrist_flex_l	wrist_dev_l
3.08	0.102278	1.29942	-1.68048	0.676191	1.15612	0.965377	-0.471853	-0.0165911	-0.193492	0	0.0369841	0	0	-0.243943	-0.00584909	-0.270574	0.211302	0.061312	0	0	-0.653751	-0.0474207	0.0463858	1.07447	-0.710762	1.24818	1.13067	0.567201	0	0	0.758366	-0.54578	0.642415	1.31655	1.02051	0	0
3.09	0.0968783	1.30018	-1.6776	0.675977	1.15637	0.965438	-0.470345	-0.0159773	-0.192353	0	0.0351062	0	0	-0.242041	-0.00723499	-0.272735	0.21353	0.0617281	0	0	-0.660447	-0.0473092	0.0471829	1.09494	-0.704222	1.26412	1.11697	0.562209	0	0	0.77393	-0.543966	0.649499	1.30871	1.01566	0	0
3.1	0.091153	1.30155	-1.67425	0.675778	1.15657	0.965474	-0.468349	-0.0151696	-0.190838	0	0.0334752	0	0	-0.239289	-0.00872609	-0.274297	0.215915	0.0612383	0	0	-0.666441	-0.0470051	0.047974	1.11506	-0.697231	1.28007	1.10293	0.557455	0	0	0.789484	-0.542013	0.656502	1.30062	1.0106	0	0
3.11	0.0853177	1.30301	-1.67061	0.675573	1.15677	0.965515	-0.466393	-0.0142776	-0.189179	0	0.0323292	0	0	-0.23616	-0.0103967	-0.275699	0.218769	0.0605619	0	0	-0.672419	-0.0467273	0.0487525	1.13443	-0.690028	1.29422	1.0884	0.551595	0	0	0.805077	-0.540223	0.663288	1.29344	1.0038	0	0
3.12	0.0795138	1.30439	-1.66688	0.675358	1.15697	0.965559	-0.464574	-0.0134268	-0.187717	0	0.0316892	0	0	-0.232755	-0.012228	-0.277218	0.222385	0.0606333	0	0	-0.678545	-0.0465372	0.0495285	1.15298	-0.68284	1.30624	1.07386	0.544956	0	0	0.82098	-0.538317	0.669642	1.28593	0.998743	0	0
3.13	0.0740919	1.30583	-1.66308	0.675204	1.15715	0.965586	-0.462789	-0.0125466	-0.186353	0	0.0307604	0	0	-0.229035	-0.014207	-0.278883	0.226623	0.0618136	0	0	-0.68461	-0.0462068	0.0500756	1.17137	-0.67616	1.3177	1.05953	0.538935	0	0	0.83731	-0.536136	0.676305	1.27742	0.99572	0	0
3.14	0.069062	1.30748	-1.65939	0.675054	1.1573	0.965595	-0.460728	-0.0116435	-0.185727	0	0.0286995	0	0	-0.225029	-0.0162638	-0.280549	0.231012	0.0625547	0	0	-0.690402	-0.0459589	0.0504484	1.18924	-0.66955	1.32893	1.04542	0.534197	0	0	0.853845	-0.534016	0.683035	1.26918	0.991365	0	0
3.15	0.0641748	1.30944	-1.65555	0.674944	1.15741	0.965568	-0.458489	-0.0106203	-0.185254	0	0.026823	0	0	-0.220904	-0.0181927	-0.281767	0.23486	0.0628752	0	0	-0.695738	-0.0457008	0.0508921	1.20623	-0.663124	1.33902	1.03104	0.5293	0	0	0.870738	-0.531396	0.689975	1.26041	0.985989	0	0
3.16	0.0594306	1.31152	-1.6518	0.674844	1.15749	0.965518	-0.456294	-0.00954185	-0.184227	0	0.025872	0	0	-0.216845	-0.0199713	-0.282535	0.238454	0.0635611	0	0	-0.700875	-0.0454626	0.0513817	1.223	-0.656602	1.34927	1.01672	0.525065	0	0	0.888062	-0.528388	0.697401	1.25088	0.980753	0	0
3.17	0.0548716	1.31359	-1.64829	0.674724	1.15751	0.965449	-0.454311	-0.00845727	-0.182254	0	0.0260091	0	0	-0.21312	-0.0217184	-0.283592	0.241612	0.0645589	0	0	-0.705841	-0.0453345	0.0517485	1.2397	-0.649595	1.35963	1.00181	0.520928	0	0	0.905238	-0.525464	0.704884	1.24136	0.974965	0	0
3.18	0.0510931	1.31561	-1.64556	0.674613	1.15749	0.965367	-0.452336	-0.00768728	-0.180728	0	0.025422	0	0	-0.209753	-0.0230017	-0.283973	0.244181	0.0646995	0	0	-0.710686	-0.0454068	0.0518898	1.25646	-0.642135	1.37035	0.986761	0.517159	0	0	0.922187	-0.522507	0.711658	1.23205	0.969252	0	0
3.19	0.0476808	1.3177	-1.64317	0.67451	1.15744	0.965267	-0.450217	-0.00707794	-0.180042	0	0.0237777	0	0	-0.206368	-0.0242921	-0.284971	0.246777	0.0650583	0	0	-0.715308	-0.0455129	0.051994	1.27285	-0.634456	1.38016	0.971912	0.511837	0	0	0.939055	-0.519483	0.717753	1.22188	0.964552	0	0
3.2	0.0442788	1.31997	-1.64084	0.674395	1.15733	0.965164	-0.448017	-0.00647528	-0.179504	0	0.0221348	0	0	-0.203003	-0.0256432	-0.286428	0.249221	0.0658501	0	0	-0.719695	-0.0457143	0.0522194	1.28853	-0.626784	1.38847	0.957427	0.505444	0	0	0.956071	-0.51629	0.723748	1.21165	0.959641	0	0
3.21	0.0407079	1.32257	-1.63835	0.674282	1.15716	0.96503	-0.445576	-0.00584096	-0.178854	0	0.0209562	0	0	-0.19941	-0.0269037	-0.287339	0.251457	0.0666846	0	0	-0.723642	-0.0458565	0.0525992	1.30352	-0.619101	1.39602	0.942925	0.498825	0	0	0.973157	-0.512836	0.729801	1.20067	0.955448	0	0
3.22	0.0376143	1.32551	-1.63623	0.674209	1.15693	0.964862	-0.442869	-0.00527941	-0.178054	0	0.0202895	0	0	-0.195731	-0.0278302	-0.287411	0.253247	0.0672965	0	0	-0.727155	-0.0459348	0.0528924	1.31843	-0.611576	1.40435	0.928944	0.493139	0	0	0.989977	-0.509189	0.735463	1.18916	0.951572	0	0
3.23	0.0352766	1.32866	-1.6349	0.674131	1.15663	0.964653	-0.439992	-0.00486634	-0.1769	0	0.0194283	0	0	-0.192087	-0.0285411	-0.287663	0.254679	0.0679701	0	0	-0.730297	-0.0461302	0.0532858	1.3332	-0.603976	1.41347	0.914769	0.487537	0	0	1.00701	-0.50523	0.74194	1.17673	0.948567	0	0
3.24	0.0330454	1.33165	-1.63372	0.674067	1.15632	0.964447	-0.437303	-0.00460189	-0.175587	0	0.0188813	0	0	-0.188619	-0.029245	-0.288349	0.25612	0.0687275	0	0	-0.733531	-0.0462252	0.0538506	1.34845	-0.596496	1.4238	0.901042	0.481709	0	0	1.02405	-0.501277	0.74841	1.16414	0.945656	0	0
3.25	0.0300423	1.33412	-1.63172	0.674034	1.15605	0.964269	-0.435144	-0.00426896	-0.174475	0	0.0185374	0	0	-0.185594	-0.0301435	-0.289299	0.257687	0.069606	0	0	-0.737261	-0.0459477	0.054481	1.36439	-0.589061	1.43497	0.888002	0.475505	0	0	1.04104	-0.497351	0.754398	1.15142	0.942873	0	0
3.26	0.0271636	1.33687	-1.62997	0.674012	1.15569	0.96407	-0.432752	-0.0040514	-0.173429	0	0.0182221	0	0	-0.182518	-0.0308863	-0.290141	0.259024	0.070298	0	0	-0.740655	-0.0456647	0.0552591	1.37987	-0.581801	1.44543	0.875107	0.468796	0	0	1.05774	-0.493255	0.76037	1.1385	0.940509	0	0
3.27	0.0255214	1.34004	-1.62944	0.674006	1.15523	0.963846	-0.430006	-0.00405887	-0.172333	0	0.0185495	0	0	-0.179157	-0.0312665	-0.290597	0.26017	0.0708426	0	0	-0.743585	-0.0455872	0.055921	1.39474	-0.574841	1.4557	0.862859	0.463651	0	0	1.07399	-0.489359	0.766064	1.12595	0.937762	0	0
3.28	0.0254816	1.34335	-1.63058	0.674005	1.15472	0.963615	-0.427077	-0.00444022	-0.171326	0	0.0188549	0	0	-0.175796	-0.0312287	-0.290965	0.261212	0.0714025	0	0	-0.74632	-0.0458571	0.056405	1.40919	-0.567964	1.46602	0.851124	0.459784	0	0	1.08979	-0.485659	0.771298	1.11367	0.93479	0	0
3.29	0.0255578	1.34673	-1.63178	0.674047	1.15414	0.9634	-0.424014	-0.0048971	-0.170222	0	0.0182537	0	0	-0.172444	-0.0310704	-0.291003	0.26215	0.0718803	0	0	-0.74895	-0.0460134	0.0568367	1.423	-0.561166	1.47527	0.839333	0.455945	0	0	1.10516	-0.481451	0.776058	1.10076	0.932968	0	0
3.3	0.0253333	1.35019	-1.63256	0.674101	1.15349	0.963195	-0.420963	-0.00524243	-0.169086	0	0.0179161	0	0	-0.16913	-0.0309941	-0.290797	0.263065	0.0723397	0	0	-0.751442	-0.0460439	0.0572389	1.43632	-0.554785	1.48403	0.82808	0.453618	0	0	1.12024	-0.477123	0.780412	1.08787	0.932185	0	0
3.31	0.0252916	1.35379	-1.63345	0.674142	1.15275	0.962961	-0.417903	-0.00551118	-0.168188	0	0.0180136	0	0	-0.16577	-0.030978	-0.291077	0.263977	0.0730923	0	0	-0.753681	-0.0460985	0.0576881	1.44892	-0.548917	1.4927	0.818081	0.454651	0	0	1.13506	-0.472887	0.784329	1.07561	0.931987	0	0
3.32	0.0257168	1.35726	-1.63462	0.674229	1.15194	0.962735	-0.414994	-0.00586949	-0.167738	0	0.0179562	0	0	-0.162743	-0.0307953	-0.291525	0.264589	0.0739193	0	0	-0.756009	-0.0460681	0.0581378	1.46106	-0.543662	1.50084	0.808925	0.458916	0	0	1.1495	-0.468467	0.787763	1.06349	0.932137	0	0
3.33	0.025623	1.36101	-1.63527	0.674342	1.15106	0.96247	-0.411791	-0.00614262	-0.167285	0	0.0174232	0	0	-0.159651	-0.0307562	-0.292276	0.264991	0.0751582	0	0	-0.75798	-0.0458456	0.0584742	1.4729	-0.538189	1.5086	0.799722	0.467311	0	0	1.16324	-0.46431	0.790816	1.05195	0.932892	0	0
3.34	0.0259058	1.36477	-1.63613	0.674489	1.15015	0.962209	-0.408684	-0.00640691	-0.166831	0	0.0172429	0	0	-0.156659	-0.0306206	-0.293056	0.265107	0.0763038	0	0	-0.759918	-0.0455642	0.0584499	1.4839	-0.532291	1.51407	0.789468	0.479868	0	0	1.17656	-0.460516	0.793938	1.04084	0.935537	0	0
3.35	0.0271611	1.36832	-1.63794	0.674675	1.14921	0.961981	-0.405932	-0.00691234	-0.166167	0	0.0178616	0	0	-0.154033	-0.0301224	-0.293514	0.264926	0.0770278	0	0	-0.762024	-0.0453193	0.0583904	1.49412	-0.526546	1.51721	0.779257	0.500379	0	0	1.18946	-0.457032	0.79656	1.0294	0.941038	0	0
3.36	0.028583	1.37214	-1.63985	0.674859	1.14819	0.961717	-0.402946	-0.00745138	-0.165745	0	0.0183982	0	0	-0.151224	-0.0295375	-0.293499	0.264668	0.0778053	0	0	-0.763665	-0.0451179	0.0582944	1.50266	-0.520588	1.51641	0.768116	0.532069	0	0	1.2016	-0.45337	0.798225	1.01792	0.94857	0	0
3.37	0.0299446	1.37616	-1.64166	0.675034	1.14712	0.961419	-0.399778	-0.00793894	-0.165345	0	0.0184201	0	0	-0.148017	-0.0291306	-0.293466	0.264891	0.0787247	0	0	-0.76515	-0.04492	0.0580033	1.50954	-0.514353	1.51008	0.75534	0.577958	0	0	1.21321	-0.449586	0.799519	1.00612	0.960078	0	0
3.38	0.0309422	1.38069	-1.64329	0.675188	1.14598	0.961076	-0.396	-0.00835971	-0.165078	0	0.0179368	0	0	-0.143989	-0.0290489	-0.294121	0.265892	0.0797468	0	0	-0.766129	-0.0448388	0.0577747	1.51426	-0.507474	1.49684	0.739753	0.644091	0	0	1.22447	-0.446285	0.800507	0.994555	0.975965	0	0
3.39	0.0317281	1.38698	-1.64452	0.67536	1.14479	0.960592	-0.390434	-0.00850055	-0.164732	0	0.0183577	0	0	-0.137098	-0.0296092	-0.295742	0.269172	0.0824752	0	0	-0.765377	-0.0445752	0.0573978	1.51572	-0.499513	1.47265	0.722042	0.737087	0	0	1.23433	-0.442903	0.798361	0.98382	0.99821	0	0
3.4	0.0202898	1.40897	-1.63531	0.675312	1.14352	0.958706	-0.367263	-0.00578646	-0.161886	0	0.0212791	0	0	-0.104499	-0.0382543	-0.315435	0.293472	0.100843	0	0	-0.749585	-0.0429426	0.0594837	1.50979	-0.492715	1.42194	0.709789	0.863361	0	0	1.23251	-0.441558	0.774986	0.990781	1.02814	0	0
3.41	0.0361517	1.39358	-1.65057	0.675736	1.14236	0.960114	-0.385933	-0.0101029	-0.163662	0	0.0188686	0	0	-0.132767	-0.0282083	-0.295954	0.269587	0.0853004	0	0	-0.770833	-0.0447159	0.0577126	1.53453	-0.492179	1.47962	0.709837	0.735501	0	0	1.2566	-0.437034	0.804385	0.96788	0.99685	0	0
3.42	0.0385569	1.39379	-1.65394	0.67596	1.14122	0.960093	-0.387021	-0.0112694	-0.162829	0	0.0195315	0	0	-0.134993	-0.0267769	-0.294658	0.267481	0.0857334	0	0	-0.777034	-0.044802	0.0584148	1.5518	-0.492429	1.51179	0.713924	0.640966	0	0	1.26937	-0.43455	0.813388	0.961659	0.973969	0	0
3.43	0.0402487	1.39441	-1.65396	0.676397	1.13971	0.959888	-0.389333	-0.0111988	-0.160909	0	0.0184303	0	0	-0.135811	-0.026983	-0.29497	0.268655	0.0883201	0	0	-0.78116	-0.0435577	0.0576538	1.5708	-0.4956	1.5708	0.729575	0.425586	0	0	1.2794	-0.431093	0.821466	0.956122	0.930594	0	0
3.44	0.0340097	1.40141	-1.65472	0.67567	1.13844	0.959471	-0.380598	-0.0114223	-0.16588	0	0.0247173	0	0	-0.131247	-0.0274472	-0.295101	0.267304	0.0894419	0	0	-0.780532	-0.0475128	0.0630692	1.5708	-0.490132	1.5708	0.721495	0.429652	0	0	1.29149	-0.427247	0.821983	0.947502	0.93374	0	0
3.45	0.0315392	1.40425	-1.65245	0.675676	1.1367	0.959206	-0.379836	-0.0108873	-0.165684	0	0.0249766	0	0	-0.130344	-0.0280221	-0.295388	0.267468	0.0904981	0	0	-0.782234	-0.0476521	0.0629776	1.5708	-0.486648	1.5708	0.714834	0.435528	0	0	1.29757	-0.422777	0.819144	0.94017	0.936554	0	0
